grf
version=1
nRows=14
nColumns=37
inDegrees=no
endheader
time	ground_force_1_vx	ground_force_1_vy	ground_force_1_vz	ground_force_1_px	ground_force_1_py	ground_force_1_pz	ground_moment_1_mx	ground_moment_1_my	ground_moment_1_mz	ground_force_2_vx	ground_force_2_vy	ground_force_2_vz	ground_force_2_px	ground_force_2_py	ground_force_2_pz	ground_moment_2_mx	ground_moment_2_my	ground_moment_2_mz	ground_force_3_vx	ground_force_3_vy	ground_force_3_vz	ground_force_3_px	ground_force_3_py	ground_force_3_pz	ground_moment_3_mx	ground_moment_3_my	ground_moment_3_mz	ground_force_4_vx	ground_force_4_vy	ground_force_4_vz	ground_force_4_px	ground_force_4_py	ground_force_4_pz	ground_moment_4_mx	ground_moment_4_my	ground_moment_4_mz
      7.88000000	      0.00000000	     -0.00000000	      0.00000000	      0.00000000	      0.00000000	      0.00000000	      0.00000000	      0.00000000	      0.00000000	      0.54091704	    100.45874786	   -411.07907104	   -253.71577416	  -1143.54061580	      0.00000000	      0.00000000	      0.00000000	   2087.59858656	      0.79242812	   -101.72061164	   -369.13247681	   -259.39109719	   -739.49913452	      0.00000000	      0.00000000	      0.00000000	  -3111.17167920	      0.00000000	     -0.00000000	      0.00000000	      0.00000000	      0.00000000	      0.00000000	      0.00000000	      0.00000000	      0.00000000
      7.89000000	      0.00000000	     -0.00000000	      0.00000000	      0.00000000	      0.00000000	      0.00000000	      0.00000000	      0.00000000	      0.00000000	      0.60451424	    100.41537476	   -411.39657593	   -254.05152588	  -1144.12443657	      0.00000000	      0.00000000	      0.00000000	   2092.49414014	      0.74404143	   -101.69804389	   -370.17938232	   -259.35454141	   -739.26607576	      0.00000000	      0.00000000	     -0.00000000	  -3168.87911071	      0.00000000	     -0.00000000	      0.00000000	      0.00000000	      0.00000000	      0.00000000	      0.00000000	      0.00000000	      0.00000000
      7.90000000	      0.00000000	     -0.00000000	      0.00000000	      0.00000000	      0.00000000	      0.00000000	      0.00000000	      0.00000000	      0.00000000	      0.61954260	    100.19744873	   -410.13989258	   -254.11871307	  -1144.27133642	      0.00000000	      0.00000000	      0.00000000	   1946.21793166	      0.72951598	   -101.48161322	   -370.52795410	   -259.06139686	   -739.77305427	      0.00000000	     -0.00000000	     -0.00000000	  -3023.52165052	      0.00000000	     -0.00000000	      0.00000000	      0.00000000	      0.00000000	      0.00000000	      0.00000000	      0.00000000	      0.00000000
      7.91000000	      0.00000000	     -0.00000000	      0.00000000	      0.00000000	      0.00000000	      0.00000000	      0.00000000	      0.00000000	      0.00000000	      0.53526306	    100.07379150	   -409.27578735	   -254.64254286	  -1143.49610425	      0.00000000	      0.00000000	      0.00000000	   1922.27138316	      0.55195194	   -100.98604589	   -370.23654175	   -259.97289625	   -740.14460215	      0.00000000	      0.00000000	     -0.00000000	  -3061.53236923	      0.00000000	     -0.00000000	      0.00000000	      0.00000000	      0.00000000	      0.00000000	      0.00000000	      0.00000000	      0.00000000
      7.92000000	      0.00000000	     -0.00000000	      0.00000000	      0.00000000	      0.00000000	      0.00000000	      0.00000000	      0.00000000	      0.00000000	      0.60915637	     99.71741486	   -408.68981934	   -254.36744049	  -1143.24223272	      0.00000000	      0.00000000	      0.00000000	   1950.42754559	      0.99536086	   -101.48161325	   -370.50903320	   -259.58748587	   -740.13541031	      0.00000000	      0.00000000	     -0.00000000	  -3147.57831803	      0.00000000	     -0.00000000	      0.00000000	      0.00000000	      0.00000000	      0.00000000	      0.00000000	      0.00000000	      0.00000000
      7.93000000	      0.00000000	     -0.00000000	      0.00000000	      0.00000000	      0.00000000	      0.00000000	      0.00000000	      0.00000000	      0.00000000	      0.58955932	     98.86498260	   -408.06106567	   -254.82130601	  -1143.39021834	      0.00000000	      0.00000000	      0.00000000	   1881.83434096	      1.18788254	   -100.98619090	   -371.32815552	   -259.81179486	   -739.47126102	      0.00000000	      0.00000000	     -0.00000000	  -3131.54570112	      0.00000000	     -0.00000000	      0.00000000	      0.00000000	      0.00000000	      0.00000000	      0.00000000	      0.00000000	      0.00000000
      7.94000000	      0.00000000	     -0.00000000	      0.00000000	      0.00000000	      0.00000000	      0.00000000	      0.00000000	      0.00000000	      0.00000000	      0.83788019	     98.93475342	   -405.87991333	   -255.08967401	  -1142.81573238	      0.00000000	      0.00000000	      0.00000000	   2033.58910351	      0.97580977	   -101.36252603	   -371.63397217	   -260.40682393	   -739.86098380	      0.00000000	     -0.00000000	      0.00000000	  -3074.81677450	      0.00000000	     -0.00000000	      0.00000000	      0.00000000	      0.00000000	      0.00000000	      0.00000000	      0.00000000	      0.00000000
      7.95000000	      0.00000000	     -0.00000000	      0.00000000	      0.00000000	      0.00000000	      0.00000000	      0.00000000	      0.00000000	      0.00000000	      1.17883015	     98.55915070	   -406.66131592	   -255.59080432	  -1143.70828048	      0.00000000	      0.00000000	      0.00000000	   2059.75040814	      1.27673675	   -100.71793377	   -373.46884155	   -260.42717231	   -738.69805418	      0.00000000	      0.00000000	     -0.00000000	  -3189.00247050	      0.00000000	     -0.00000000	      0.00000000	      0.00000000	      0.00000000	      0.00000000	      0.00000000	      0.00000000	      0.00000000
      7.96000000	      0.00000000	     -0.00000000	      0.00000000	      0.00000000	      0.00000000	      0.00000000	      0.00000000	      0.00000000	      0.00000000	      0.90828514	     98.41889191	   -405.31149292	   -255.82785382	  -1143.43732159	      0.00000000	      0.00000000	      0.00000000	   1926.95173239	      1.54603267	   -100.83173384	   -372.81924438	   -260.35235351	   -739.38722428	      0.00000000	      0.00000000	     -0.00000000	  -3308.56057964	      0.00000000	     -0.00000000	      0.00000000	      0.00000000	      0.00000000	      0.00000000	      0.00000000	      0.00000000	      0.00000000
      7.97000000	      0.00000000	     -0.00000000	      0.00000000	      0.00000000	      0.00000000	      0.00000000	      0.00000000	      0.00000000	      0.00000000	      1.08692265	     97.97310638	   -405.08786011	   -256.34121317	  -1143.35681278	      0.00000000	      0.00000000	      0.00000000	   2062.96185411	      1.36832405	   -100.84461224	   -372.75643921	   -260.33894561	   -739.79226009	      0.00000000	     -0.00000000	     -0.00000000	  -3191.26737605	      0.00000000	     -0.00000000	      0.00000000	      0.00000000	      0.00000000	      0.00000000	      0.00000000	      0.00000000	      0.00000000
      7.98000000	      0.00000000	     -0.00000000	      0.00000000	      0.00000000	      0.00000000	      0.00000000	      0.00000000	      0.00000000	      0.00000000	      1.53523970	     98.11598206	   -405.80377197	   -256.49302893	  -1144.30459885	      0.00000000	      0.00000000	      0.00000000	   2074.88490116	      1.52439260	   -100.94932569	   -373.45443726	   -261.01281082	   -739.34223594	      0.00000000	      0.00000000	      0.00000000	  -3346.37634966	      0.00000000	     -0.00000000	      0.00000000	      0.00000000	      0.00000000	      0.00000000	      0.00000000	      0.00000000	      0.00000000
      7.99000000	      0.00000000	     -0.00000000	      0.00000000	      0.00000000	      0.00000000	      0.00000000	      0.00000000	      0.00000000	      0.00000000	      1.38864434	     97.86349487	   -404.67758179	   -256.54064820	  -1142.99208354	      0.00000000	      0.00000000	      0.00000000	   2038.85285438	      1.41734670	   -101.06048596	   -373.52716064	   -260.79010110	   -740.18589597	      0.00000000	      0.00000000	     -0.00000000	  -3159.52385527	      0.00000000	     -0.00000000	      0.00000000	      0.00000000	      0.00000000	      0.00000000	      0.00000000	      0.00000000	      0.00000000
      8.00000000	      0.00000000	     -0.00000000	      0.00000000	      0.00000000	      0.00000000	      0.00000000	      0.00000000	      0.00000000	      0.00000000	      1.85372460	     97.77604675	   -405.59078979	   -256.45189825	  -1143.47781741	      0.00000000	      0.00000000	      0.00000000	   1983.94893302	      1.38255572	   -100.96836865	   -373.59222412	   -260.83118340	   -740.75508055	      0.00000000	      0.00000000	      0.00000000	  -3110.42700330	      0.00000000	     -0.00000000	      0.00000000	      0.00000000	      0.00000000	      0.00000000	      0.00000000	      0.00000000	      0.00000000
      8.01000000	      0.00000000	     -0.00000000	      0.00000000	      0.00000000	      0.00000000	      0.00000000	      0.00000000	      0.00000000	      0.00000000	      1.89164913	     97.90065002	   -405.23791504	   -256.84511383	  -1143.47700085	      0.00000000	      0.00000000	      0.00000000	   2176.82456622	      1.82769293	   -101.58811967	   -375.33801270	   -260.69829953	   -739.18205256	      0.00000000	     -0.00000000	     -0.00000000	  -3080.87006272	      0.00000000	     -0.00000000	      0.00000000	      0.00000000	      0.00000000	      0.00000000	      0.00000000	      0.00000000	      0.00000000
